<svg width="220.807" height="67.601" viewBox="0 0 220.807 67.601" xmlns="http://www.w3.org/2000/svg"><g id="svgGroup" stroke-linecap="round" fill-rule="evenodd" font-size="9pt" stroke="#000" stroke-width="0.25mm" fill="#ffd700" style="stroke:#000;stroke-width:0.25mm;fill:#ffd700"><path d="M 100.402 59.601 L 94.702 50.801 A 24.18 24.18 0 0 1 88.814 54.628 A 13.019 13.019 0 0 1 83.602 55.801 A 16.022 16.022 0 0 1 78.089 54.922 C 72.56 52.905 70.104 47.518 70.005 39.883 A 37.449 37.449 0 0 1 70.002 39.401 C 70.002 24.901 78.802 11.901 89.902 11.901 A 8.759 8.759 0 0 1 96.554 14.91 A 17.534 17.534 0 0 1 98.602 17.601 L 108.002 10.401 C 104.302 3.901 98.202 0.001 90.602 0.001 A 34.157 34.157 0 0 0 59.636 21.847 A 46.27 46.27 0 0 0 55.902 40.301 A 35.552 35.552 0 0 0 57.654 51.78 C 61.09 61.863 69.377 67.601 80.702 67.601 A 27.081 27.081 0 0 0 88.538 66.438 C 93.353 64.987 97.221 62.412 99.879 60.072 A 29.75 29.75 0 0 0 100.402 59.601 Z M 100.802 66.401 L 115.902 66.401 L 123.602 50.001 L 143.002 50.001 L 143.802 66.401 L 158.102 66.401 L 151.602 1.201 L 135.202 1.201 L 100.802 66.401 Z M 164.602 66.401 L 185.002 66.401 A 36.315 36.315 0 0 0 205.78 60.468 C 214.97 54.184 220.654 43.007 220.799 27.417 A 65.918 65.918 0 0 0 220.802 26.801 C 220.802 13.51 214.473 5.474 203.199 2.507 A 44.123 44.123 0 0 0 192.002 1.201 L 177.702 1.201 L 164.602 66.401 Z M 19.202 67.601 C 32.902 67.601 47.002 55.201 47.002 36.001 A 23.908 23.908 0 0 0 45.166 26.481 C 42.233 19.695 35.978 15.601 27.802 15.601 C 14.102 15.601 0.002 28.001 0.002 47.201 A 24.075 24.075 0 0 0 1.82 56.72 C 4.73 63.507 10.955 67.601 19.202 67.601 Z M 180.602 55.401 L 189.102 12.201 L 191.702 12.201 A 18.915 18.915 0 0 1 198.736 13.408 C 203.766 15.421 206.802 20.017 206.802 27.701 A 44.082 44.082 0 0 1 205.754 37.667 C 204.919 41.259 203.611 44.281 201.921 46.755 A 19.947 19.947 0 0 1 184.702 55.401 L 180.602 55.401 Z M 17.138 55.61 A 6.305 6.305 0 0 0 20.702 56.601 C 25.531 56.601 29.892 52.082 31.952 45.215 A 31.136 31.136 0 0 0 33.202 36.301 A 20.054 20.054 0 0 0 33.096 34.184 C 32.767 31.087 31.677 28.834 29.864 27.622 A 6.451 6.451 0 0 0 26.202 26.601 A 7.853 7.853 0 0 0 23.18 27.218 C 17.928 29.396 13.802 37.117 13.802 46.901 A 20.433 20.433 0 0 0 13.898 48.92 C 14.21 52.063 15.291 54.382 17.138 55.61 Z M 140.902 11.701 L 141.302 11.701 C 141.448 16.719 141.646 21.314 141.859 25.909 A 9176.825 9176.825 0 0 0 142.102 31.101 L 142.502 39.701 L 128.502 39.701 L 132.502 31.101 A 225.872 225.872 0 0 0 135.784 23.872 C 136.594 22.009 137.382 20.146 138.169 18.264 A 30313.698 30313.698 0 0 0 140.902 11.701 Z" vector-effect="non-scaling-stroke"/></g></svg>