<svg width="335.9" height="66.65" viewBox="0 0 335.9 66.65" xmlns="http://www.w3.org/2000/svg"><g id="svgGroup" stroke-linecap="round" fill-rule="evenodd" font-size="9pt" stroke="#000000" stroke-width="0.25mm" fill="#000000" style="stroke:#000000;stroke-width:0.25mm;fill:#000000"><path d="M 14.75 66.65 L 1.45 66.65 A 1.799 1.799 0 0 1 0.956 66.588 Q 0.401 66.429 0.253 65.863 A 1.842 1.842 0 0 1 0.2 65.4 L 0.2 46.4 A 4.702 4.702 0 0 1 0.223 45.924 A 3.681 3.681 0 0 1 0.275 45.575 A 1.084 1.084 0 0 1 0.492 45.115 A 1.52 1.52 0 0 1 0.7 44.9 L 7.2 39.65 L 7.2 37.9 L 0.5 32.55 A 1.48 1.48 0 0 1 0.263 32.297 A 1.07 1.07 0 0 1 0.075 31.875 A 3.787 3.787 0 0 1 0.015 31.43 A 4.841 4.841 0 0 1 0 31.05 L 0 12.9 A 1.799 1.799 0 0 1 0.062 12.406 Q 0.221 11.851 0.787 11.703 A 1.842 1.842 0 0 1 1.25 11.65 L 14.6 11.65 A 1.799 1.799 0 0 1 15.095 11.712 Q 15.65 11.871 15.797 12.437 A 1.842 1.842 0 0 1 15.85 12.9 L 15.85 32.55 L 24.95 32.55 L 24.95 12.9 A 1.799 1.799 0 0 1 25.012 12.406 Q 25.171 11.851 25.737 11.703 A 1.842 1.842 0 0 1 26.2 11.65 L 39.5 11.65 A 1.799 1.799 0 0 1 39.995 11.712 Q 40.55 11.871 40.697 12.437 A 1.842 1.842 0 0 1 40.75 12.9 L 40.75 31.05 Q 40.75 31.5 40.7 31.875 Q 40.65 32.25 40.25 32.55 L 33.6 37.9 L 33.6 39.65 L 40.45 44.9 A 1.135 1.135 0 0 1 40.688 45.095 A 0.809 0.809 0 0 1 40.9 45.55 A 6.515 6.515 0 0 1 40.945 46.124 A 7.689 7.689 0 0 1 40.95 46.4 L 40.95 65.4 A 1.799 1.799 0 0 1 40.888 65.895 Q 40.729 66.45 40.163 66.597 A 1.842 1.842 0 0 1 39.7 66.65 L 26.35 66.65 A 1.799 1.799 0 0 1 25.856 66.588 Q 25.301 66.429 25.153 65.863 A 1.842 1.842 0 0 1 25.1 65.4 L 25.1 44.9 L 16 44.9 L 16 65.4 A 1.799 1.799 0 0 1 15.938 65.895 Q 15.779 66.45 15.213 66.597 A 1.842 1.842 0 0 1 14.75 66.65 Z M 67.7 66.65 L 53.5 66.65 A 1.799 1.799 0 0 1 53.006 66.588 Q 52.451 66.429 52.303 65.863 A 1.842 1.842 0 0 1 52.25 65.4 L 52.25 19.05 A 2.08 2.08 0 0 1 52.326 18.512 Q 52.445 18.068 52.75 17.55 L 64.6 0.75 A 1.786 1.786 0 0 1 65.884 0.018 A 2.639 2.639 0 0 1 66.2 0 L 82.75 0 A 2.53 2.53 0 0 1 83.376 0.073 A 1.603 1.603 0 0 1 84.35 0.75 L 96.25 17.55 A 2.688 2.688 0 0 1 96.66 18.387 A 2.439 2.439 0 0 1 96.75 19.05 L 96.75 65.4 A 1.799 1.799 0 0 1 96.688 65.895 Q 96.529 66.45 95.963 66.597 A 1.842 1.842 0 0 1 95.5 66.65 L 81.35 66.65 A 1.799 1.799 0 0 1 80.856 66.588 Q 80.301 66.429 80.153 65.863 A 1.842 1.842 0 0 1 80.1 65.4 L 80.1 44.15 L 68.95 44.15 L 68.95 65.4 A 1.799 1.799 0 0 1 68.888 65.895 Q 68.729 66.45 68.163 66.597 A 1.842 1.842 0 0 1 67.7 66.65 Z M 285.75 66.65 L 259 66.65 A 1.799 1.799 0 0 1 258.506 66.588 Q 257.951 66.429 257.803 65.863 A 1.842 1.842 0 0 1 257.75 65.4 L 257.75 1.25 A 1.799 1.799 0 0 1 257.812 0.756 Q 257.971 0.201 258.537 0.053 A 1.842 1.842 0 0 1 259 0 L 272.35 0 A 1.799 1.799 0 0 1 272.845 0.062 Q 273.4 0.221 273.547 0.787 A 1.842 1.842 0 0 1 273.6 1.25 L 273.6 15 L 276.1 12.5 A 2.62 2.62 0 0 1 278.007 11.651 A 3.323 3.323 0 0 1 278.1 11.65 L 285.75 11.65 Q 286.9 11.65 287.75 12.5 L 297.75 22.5 A 2.62 2.62 0 0 1 298.599 24.407 A 3.323 3.323 0 0 1 298.6 24.5 L 298.6 53.8 A 2.775 2.775 0 0 1 298.378 54.924 A 2.664 2.664 0 0 1 297.75 55.8 L 287.75 65.8 Q 286.9 66.65 285.75 66.65 Z M 196.35 66.65 L 168.35 66.65 A 1.799 1.799 0 0 1 167.856 66.588 Q 167.301 66.429 167.153 65.863 A 1.842 1.842 0 0 1 167.1 65.4 L 167.1 1.25 A 1.799 1.799 0 0 1 167.162 0.756 Q 167.321 0.201 167.887 0.053 A 1.842 1.842 0 0 1 168.35 0 L 182.5 0 A 1.799 1.799 0 0 1 182.995 0.062 Q 183.55 0.221 183.697 0.787 A 1.842 1.842 0 0 1 183.75 1.25 L 183.75 53.3 L 196.35 53.3 A 1.799 1.799 0 0 1 196.845 53.362 Q 197.4 53.521 197.547 54.087 A 1.842 1.842 0 0 1 197.6 54.55 L 197.6 65.4 A 1.799 1.799 0 0 1 197.538 65.895 Q 197.379 66.45 196.813 66.597 A 1.842 1.842 0 0 1 196.35 66.65 Z M 225.75 66.65 L 218.1 66.65 Q 216.95 66.65 216.1 65.8 L 206.1 55.8 A 2.62 2.62 0 0 1 205.251 53.893 A 3.323 3.323 0 0 1 205.25 53.8 L 205.25 24.5 A 2.775 2.775 0 0 1 205.473 23.377 A 2.664 2.664 0 0 1 206.1 22.5 L 216.1 12.5 Q 216.95 11.65 218.1 11.65 L 244.85 11.65 A 1.799 1.799 0 0 1 245.345 11.712 Q 245.9 11.871 246.047 12.437 A 1.842 1.842 0 0 1 246.1 12.9 L 246.1 65.4 A 1.799 1.799 0 0 1 246.038 65.895 Q 245.879 66.45 245.313 66.597 A 1.842 1.842 0 0 1 244.85 66.65 L 234.45 66.65 A 2.696 2.696 0 0 1 234.093 66.628 Q 233.917 66.605 233.773 66.555 A 1.032 1.032 0 0 1 233.475 66.4 A 12.082 12.082 0 0 1 233.176 66.162 Q 232.975 65.997 232.75 65.8 L 230.25 63.3 L 227.75 65.8 A 2.62 2.62 0 0 1 225.843 66.649 A 3.323 3.323 0 0 1 225.75 66.65 Z M 322.4 66.65 L 309.95 66.65 A 1.799 1.799 0 0 1 309.456 66.588 Q 308.901 66.429 308.753 65.863 A 1.842 1.842 0 0 1 308.7 65.4 L 308.7 57.3 Q 308.7 56.15 309.45 55.8 L 319.65 49.75 L 319.65 44.55 L 309.45 39.05 A 1.471 1.471 0 0 1 308.766 38.096 Q 308.701 37.831 308.7 37.51 A 3.162 3.162 0 0 1 308.7 37.5 L 308.7 21.55 A 2.839 2.839 0 0 1 308.723 21.181 Q 308.763 20.874 308.875 20.65 A 1.585 1.585 0 0 1 309.275 20.147 A 1.917 1.917 0 0 1 309.4 20.05 L 320.05 12.25 A 5.954 5.954 0 0 1 320.344 12.049 Q 320.622 11.871 320.837 11.788 A 1.349 1.349 0 0 1 320.95 11.75 Q 321.3 11.65 321.65 11.65 L 333.8 11.65 A 1.799 1.799 0 0 1 334.295 11.712 Q 334.85 11.871 334.997 12.437 A 1.842 1.842 0 0 1 335.05 12.9 L 335.05 20.75 Q 335.05 21.6 334.925 21.9 A 0.81 0.81 0 0 1 334.731 22.175 Q 334.641 22.261 334.518 22.335 A 1.695 1.695 0 0 1 334.4 22.4 L 324.95 27.5 L 324.95 33.3 L 335.05 38.3 Q 335.9 38.65 335.9 39.8 L 335.9 55.15 A 2.969 2.969 0 0 1 335.763 56.075 A 2.408 2.408 0 0 1 335.05 57.15 L 324.4 66 A 2.869 2.869 0 0 1 323.018 66.603 A 3.899 3.899 0 0 1 322.4 66.65 Z M 123.85 66.65 L 109.7 66.65 A 1.799 1.799 0 0 1 109.206 66.588 Q 108.651 66.429 108.503 65.863 A 1.842 1.842 0 0 1 108.45 65.4 L 108.45 1.25 A 1.799 1.799 0 0 1 108.512 0.756 Q 108.671 0.201 109.237 0.053 A 1.842 1.842 0 0 1 109.7 0 L 123.85 0 A 1.799 1.799 0 0 1 124.345 0.062 Q 124.9 0.221 125.047 0.787 A 1.842 1.842 0 0 1 125.1 1.25 L 125.1 65.4 A 1.799 1.799 0 0 1 125.038 65.895 Q 124.879 66.45 124.313 66.597 A 1.842 1.842 0 0 1 123.85 66.65 Z M 158.85 41.25 L 133.35 41.25 A 1.799 1.799 0 0 1 132.856 41.188 Q 132.301 41.029 132.153 40.463 A 1.842 1.842 0 0 1 132.1 40 L 132.1 26.65 A 1.799 1.799 0 0 1 132.162 26.156 Q 132.321 25.601 132.887 25.453 A 1.842 1.842 0 0 1 133.35 25.4 L 158.85 25.4 A 1.799 1.799 0 0 1 159.345 25.462 Q 159.9 25.621 160.047 26.187 A 1.842 1.842 0 0 1 160.1 26.65 L 160.1 40 A 1.799 1.799 0 0 1 160.038 40.495 Q 159.879 41.05 159.313 41.197 A 1.842 1.842 0 0 1 158.85 41.25 Z M 273.6 26.25 L 273.6 55 L 279.9 55 Q 281.55 55 282.15 54.35 A 1.801 1.801 0 0 0 282.492 53.785 Q 282.704 53.249 282.742 52.422 A 8.148 8.148 0 0 0 282.75 52.05 L 282.75 26.25 Q 282.75 24.897 282.347 24.217 A 1.575 1.575 0 0 0 282.15 23.95 A 1.618 1.618 0 0 0 281.591 23.57 Q 280.964 23.3 279.9 23.3 L 276.4 23.3 Q 275.064 23.3 274.426 23.753 A 1.436 1.436 0 0 0 274.2 23.95 A 1.801 1.801 0 0 0 273.859 24.515 Q 273.646 25.051 273.608 25.878 A 8.148 8.148 0 0 0 273.6 26.25 Z M 223.95 55 L 227.45 55 Q 228.786 55 229.425 54.547 A 1.436 1.436 0 0 0 229.65 54.35 A 1.801 1.801 0 0 0 229.992 53.785 Q 230.204 53.249 230.242 52.422 A 8.148 8.148 0 0 0 230.25 52.05 L 230.25 23.3 L 223.95 23.3 Q 222.3 23.3 221.7 23.95 A 1.801 1.801 0 0 0 221.359 24.515 Q 221.146 25.051 221.108 25.878 A 8.148 8.148 0 0 0 221.1 26.25 L 221.1 52.05 Q 221.1 53.403 221.503 54.083 A 1.575 1.575 0 0 0 221.7 54.35 A 1.618 1.618 0 0 0 222.259 54.73 Q 222.887 55 223.95 55 Z M 74.5 33.4 A 16.305 16.305 0 0 0 76.614 33.274 Q 78.927 32.97 80.169 31.938 A 3.922 3.922 0 0 0 80.725 31.375 A 5.36 5.36 0 0 0 81.538 29.873 Q 82.121 28.298 82.286 25.776 A 32.783 32.783 0 0 0 82.35 23.65 A 31.359 31.359 0 0 0 82.255 21.105 Q 82.054 18.646 81.428 17.148 A 5.055 5.055 0 0 0 80.725 15.925 A 4.48 4.48 0 0 0 79.013 14.657 Q 77.312 13.9 74.5 13.9 A 15.98 15.98 0 0 0 72.408 14.027 Q 70.103 14.332 68.864 15.376 A 3.947 3.947 0 0 0 68.325 15.925 A 5.36 5.36 0 0 0 67.513 17.427 Q 66.929 19.002 66.765 21.525 A 32.783 32.783 0 0 0 66.7 23.65 A 31.359 31.359 0 0 0 66.795 26.196 Q 66.997 28.654 67.622 30.153 A 5.055 5.055 0 0 0 68.325 31.375 Q 69.834 33.256 73.866 33.39 A 19.078 19.078 0 0 0 74.5 33.4 Z" vector-effect="non-scaling-stroke"/></g></svg>